Genre: Thriller
 Language: English
 IMDb: http://www.imdb.com/title/tt1738387/
 Source: Stein Thanks Men!
-

Format : AVI
 Format/Info : Audio Video Interleave
 File size : 1.02 GiB
 Duration : 1h 32mn
 Overall bit rate : 1 586 Kbps
-

Video
 ID : 0
 Format : MPEG-4 Visual
 Format profile : Advanced Simple@L5
 Format settings, BVOP : Yes
 Format settings, QPel : No
 Format settings, GMC : No warppoints
 Format settings, Matrix : Default (H.263)
 Codec ID : XVID
 Codec ID/Hint : XviD
 Duration : 1h 32mn
 Bit rate : 1 129 Kbps
 Width : 640 pixels
 Height : 344 pixels
 Display aspect ratio : 1.860
 Frame rate : 23.976 fps
 Color space : YUV
 Chroma subsampling : 4:2:0
 Bit depth : 8 bits
 Scan type : Progressive
 Bits/(Pixel*Frame) : 0.214
 Stream size : 745 MiB (71%)
 Writing library : XviD 1.2.1 (UTC 2008-12-04)
 

Audio
 ID : 1
 Format : AC-3
 Format/Info : Audio Coding 3
 Mode extension : CM (complete main)
 Codec ID : 2000
 Duration : 1h 32mn
 Bit rate mode : Constant
 Bit rate : 448 Kbps
 Channel(s) : 6 channels
 Channel positions : Front: L C R, Side: L R, LFE
 Sampling rate : 48.0 KHz
 Bit depth : 16 bits
 Stream size : 296 MiB (28%)
 Alignment : Aligned on interleaves
 Interleave, duration : 42 ms (1.00 video frame)
 Interleave, preload duration : 512 ms
 
-


Plot:
 A homicide detective, Ray Liotta, while investigating a series of murders becomes the prime suspect when the FBI uncovers his close personal ties to all the victims.
 
